/* XPM */
static const char * CheckBoxOn_xpm[] = {
"13 13 6 1",
" 	c None",
".	c #949594",
"+	c #555555",
"@	c #FFFFFF",
"#	c #D5D6D5",
"$	c #000000",
".............",
".+++++++++++@",
".+@@@@@@@@@#@",
".+@$$@@@$$@#@",
".+@$$$@$$$@#@",
".+@@$$$$$@@#@",
".+@@@$$$@@@#@",
".+@@$$$$$@@#@",
".+@$$$@$$$@#@",
".+@$$@@@$$@#@",
".+@@@@@@@@@#@",
".+##########@",
".@@@@@@@@@@@@"};
