/* XPM */
static const char * FileIcon_xpm[] = {
"16 16 5 1",
" 	c None",
".	c #000000",
"+	c #191919",
"@	c #FFFFFF",
"#	c #7B7D7B",
"                ",
"                ",
"   ......+      ",
"   .@@@@@..     ",
"   .@@@@@.@.    ",
"   .@@@@@....   ",
"   .@...@@@@.   ",
"   .@@@@@@@@.#  ",
"   .@......@.#  ",
"   .@@@@@@@@.#  ",
"   .@....@@@.#  ",
"   .@@@@@@@@.#  ",
"   .@.....@@.#  ",
"   .@@@@@@@@.#  ",
"   ..........#  ",
"    ##########  "};
