/* XPM */
static char * FolderIcon_xpm[] = {
"16 16 4 1",
" 	c None",
".	c #000000",
"+	c #F4E573",
"@	c #7B7D7B",
"                ",
"                ",
"   ....         ",
"  .++++.        ",
" .++++++......  ",
" .......++++++. ",
" .++++++++++++.@",
" .++++++++++++.@",
" .++++++++++++.@",
" .++++++++++++.@",
" .++++++++++++.@",
" .++++++++++++.@",
" .++++++++++++.@",
" .++++++++++++.@",
" ..............@",
"  @@@@@@@@@@@@@@"};
