/* XPM */
static char * GrayStipple_xpm[] = {
"32 32 2 1",
".	c #000000",
"+	c #FFFFFF",
".+.+.+.+.+.+.+.+.+.+.+.+.+.+.+.+",
"+.+.+.+.+.+.+.+.+.+.+.+.+.+.+.+.",
".+.+.+.+.+.+.+.+.+.+.+.+.+.+.+.+",
"+.+.+.+.+.+.+.+.+.+.+.+.+.+.+.+.",
".+.+.+.+.+.+.+.+.+.+.+.+.+.+.+.+",
"+.+.+.+.+.+.+.+.+.+.+.+.+.+.+.+.",
".+.+.+.+.+.+.+.+.+.+.+.+.+.+.+.+",
"+.+.+.+.+.+.+.+.+.+.+.+.+.+.+.+.",
".+.+.+.+.+.+.+.+.+.+.+.+.+.+.+.+",
"+.+.+.+.+.+.+.+.+.+.+.+.+.+.+.+.",
".+.+.+.+.+.+.+.+.+.+.+.+.+.+.+.+",
"+.+.+.+.+.+.+.+.+.+.+.+.+.+.+.+.",
".+.+.+.+.+.+.+.+.+.+.+.+.+.+.+.+",
"+.+.+.+.+.+.+.+.+.+.+.+.+.+.+.+.",
".+.+.+.+.+.+.+.+.+.+.+.+.+.+.+.+",
"+.+.+.+.+.+.+.+.+.+.+.+.+.+.+.+.",
".+.+.+.+.+.+.+.+.+.+.+.+.+.+.+.+",
"+.+.+.+.+.+.+.+.+.+.+.+.+.+.+.+.",
".+.+.+.+.+.+.+.+.+.+.+.+.+.+.+.+",
"+.+.+.+.+.+.+.+.+.+.+.+.+.+.+.+.",
".+.+.+.+.+.+.+.+.+.+.+.+.+.+.+.+",
"+.+.+.+.+.+.+.+.+.+.+.+.+.+.+.+.",
".+.+.+.+.+.+.+.+.+.+.+.+.+.+.+.+",
"+.+.+.+.+.+.+.+.+.+.+.+.+.+.+.+.",
".+.+.+.+.+.+.+.+.+.+.+.+.+.+.+.+",
"+.+.+.+.+.+.+.+.+.+.+.+.+.+.+.+.",
".+.+.+.+.+.+.+.+.+.+.+.+.+.+.+.+",
"+.+.+.+.+.+.+.+.+.+.+.+.+.+.+.+.",
".+.+.+.+.+.+.+.+.+.+.+.+.+.+.+.+",
"+.+.+.+.+.+.+.+.+.+.+.+.+.+.+.+.",
".+.+.+.+.+.+.+.+.+.+.+.+.+.+.+.+",
"+.+.+.+.+.+.+.+.+.+.+.+.+.+.+.+."};
