/* XPM */
static char * LeftArrow_xpm[] = {
"4 7 3 1",
" 	c None",
".	c #D6D3CE",
"+	c #000000",
"...+",
"..++",
".+++",
"++++",
".+++",
"..++",
"...+"};
