/* XPM */
static const char * MenuArrow_xpm[] = {
"7 9 2 1",
" 	c None",
".	c #000000",
" .     ",
" ..    ",
" ...   ",
" ....  ",
" ..... ",
" ....  ",
" ...   ",
" ..    ",
" .     "};
