/* XPM */
static char * MenuCheck_xpm[] = {
"10 9 2 1",
" 	c None",
".	c #000000",
"          ",
"        ..",
"       .. ",
"      ..  ",
"..   ..   ",
" .. ..    ",
"  ...     ",
"   .      ",
"          "};
