/* XPM */
static const char * RadioOffPressed_xpm[] = {
"13 13 5 1",
" 	c None",
".	c #949594",
"+	c #555555",
"@	c #D5D6D5",
"#	c #FFFFFF",
"    .....    ",
"  ..+++++..  ",
" .++++++++@# ",
" .++++++++@# ",
".++++++++++@#",
".++++++++++@#",
".++++++++++@#",
".++++++++++@#",
".++++++++++@#",
" .++++++++@# ",
" .@@+++++@@# ",
"  ##@@@@@##  ",
"    #####    "};
