/* XPM */
static char * TriangleOpened_xpm[] = {
"9 9 4 1",
" 	c None",
".	c #FFFFFF",
"+	c #000000",
"@	c #949594",
".........",
".........",
"+++++++++",
".+@@@@@+.",
"..+@@@+..",
"...+@+...",
"....+....",
".........",
"........."};
