/* XPM */
static char * RightArrowDisabled_xpm[] = {
"16 15 2 1",
" 	c None",
".	c #000000",
"        .       ",
"         .      ",
"        . .     ",
"         . .    ",
". . . . . . .   ",
" . . . . . . .  ",
". . . . . . . . ",
" . . . . . . . .",
". . . . . . . . ",
" . . . . . . .  ",
". . . . . . .   ",
"         . .    ",
"        . .     ",
"         .      ",
"        .       "};
