/* XPM */
static char * zoinks_xpm[] = {
"48 48 4 1",
" 	c None",
".	c #000000",
"+	c #FFFF00",
"@	c #FFFFFF",
"                   ..........                   ",
"                ................                ",
"             ......++++++++++......             ",
"            ....++++++++++++++++....            ",
"          ....++++++++++++++++++++....          ",
"         ...++++++++++++++++++++++++...         ",
"        ..++++++++++++++++++++++++++++..        ",
"       ..++++++++++++++++++++++++++++++..       ",
"      ..++++++++++++++++++++++++++++++++..      ",
"     ..++++++++++++++++++++++++++++++++++..     ",
"    ..++++++++++++++++++++++++++++++++++++..    ",
"   ...++++++++++++++++++++++++++++++++++++...   ",
"   ..++++++++++++++++++++++++++++++++++++++..   ",
"  ..+++++++++...+++++++++++++++...++++++++++..  ",
"  ..++++++++.@@@.+++++++++++++.@@@.+++++++++..  ",
" ...++++++++.@@@.+++++++++++++.@@@.+++++++++... ",
" ..+++++++++.@@@.+++++++++++++.@@@.++++++++++.. ",
" ..++++++++++...++++++++.++++++...+++++++++++.. ",
" ..+++++++++++++++++++++.++++++++++++++++++++.. ",
"..+++++++++++++++++++++++.++++++++++++++++++++..",
"..+++++++++++++++++++++++.++++++++++++++++++++..",
"..++++++++++++++++++++++++.+++++++++++++++++++..",
"..++++++++++++++++++++++++.+++++++++++++++++++..",
"..++++++++++++++++++++++++.+++++++++++++++++++..",
"..+++++++++++++++++++++++++.++++++++++++++++++..",
"..+++++++++++++++++++++++++.++++++++++++++++++..",
"..++++++++++++++++++++++++++.+++++++++++++++++..",
"..++++++++++++++++++++++.....+++++++++++++++++..",
" ..++++++++++++++++++++++++++++++++++++++++++.. ",
" ..++++++++++++++++++++++++++++++++++++++++++.. ",
" ..++++++++++++++++++++++++++++++++++++++++++.. ",
" ...++++++.+++++++++++++++++++++++++++.+++++... ",
"  ..++++++..++++++++++++++++++++++++++.+++++..  ",
"  ..++++++.@..++++++++++++++++++++++...+++++..  ",
"   ..++++++.@@....++++++++++++++....@.+++++..   ",
"   ...++++++.@@@@@..............@@@@.+++++...   ",
"    ..+++++++.@@@@@@@@@@@@@@@@@@@@@.++++++..    ",
"     ..+++++++..@@@@@@@@@@@@@@@@@..++++++..     ",
"      ..++++++++....@@@@@@@@@....+++++++..      ",
"       ..+++++++++++.........++++++++++..       ",
"        ..++++++++++++++++++++++++++++..        ",
"         ...++++++++++++++++++++++++...         ",
"          ....++++++++++++++++++++....          ",
"            ....++++++++++++++++....            ",
"             ......++++++++++......             ",
"                ................                ",
"                   ..........                   ",
"                                                "};
